<svg width="38" height="34" viewBox="0 0 38 34" fill="none" xmlns="http://www.w3.org/2000/svg">
<g filter="url(#filter0_dd)">
<path d="M23.7397 3.75745C23.0122 3.75745 22.3262 4.04362 21.8182 4.54254C21.3102 4.04362 20.6241 3.75745 19.8967 3.75745C18.383 3.75745 17.1515 4.98897 17.1515 6.50268C17.1515 7.89077 17.9347 9.30487 19.4164 10.592C20.502 11.5351 21.575 12.0815 21.6201 12.1043C21.6824 12.1358 21.7503 12.1515 21.8182 12.1515C21.8861 12.1515 21.954 12.1357 22.0163 12.1043C22.0614 12.0815 23.1344 11.5351 24.22 10.592C25.7017 9.30487 26.4849 7.89077 26.4849 6.50268C26.4849 4.98897 25.2534 3.75745 23.7397 3.75745ZM21.8182 11.2117C21.0123 10.7559 18.0304 8.90655 18.0304 6.50268C18.0304 5.4736 18.8676 4.63635 19.8967 4.63635C20.523 4.63635 21.1045 4.94883 21.4521 5.47225C21.5335 5.59489 21.6709 5.6686 21.8182 5.6686C21.9654 5.6686 22.1028 5.59489 22.1843 5.47225C22.5319 4.94883 23.1133 4.63635 23.7397 4.63635C24.7688 4.63635 25.606 5.4736 25.606 6.50268C25.606 8.90655 22.624 10.7559 21.8182 11.2117Z" fill="#FFBB01"/>
<path d="M30.7424 3.75745H28.3939C28.1512 3.75745 27.9545 3.9542 27.9545 4.1969C27.9545 4.43959 28.1512 4.63635 28.3939 4.63635H30.7424C30.9851 4.63635 31.1819 4.43959 31.1819 4.1969C31.1819 3.9542 30.9851 3.75745 30.7424 3.75745Z" fill="#FFBB01"/>
<path d="M29.803 8.45447H28.3939C28.1512 8.45447 27.9545 8.65123 27.9545 8.89392C27.9545 9.13662 28.1512 9.33337 28.3939 9.33337H29.803C30.0457 9.33337 30.2424 9.13662 30.2424 8.89392C30.2424 8.65123 30.0457 8.45447 29.803 8.45447Z" fill="#FFBB01"/>
<path d="M30.7424 6.10608H28.3939C28.1512 6.10608 27.9545 6.30284 27.9545 6.54553C27.9545 6.78823 28.1512 6.98499 28.3939 6.98499H30.7424C30.9851 6.98499 31.1819 6.78823 31.1819 6.54553C31.1819 6.30284 30.9851 6.10608 30.7424 6.10608Z" fill="#FFBB01"/>
<path d="M12.894 10.7424C13.1367 10.7424 13.3335 10.5457 13.3335 10.303C13.3335 10.0603 13.1367 9.86353 12.894 9.86353H11.9548C11.7121 9.86353 11.5154 10.0603 11.5154 10.303C11.5154 10.5457 11.7121 10.7424 11.9548 10.7424H12.894Z" fill="#FFBB01"/>
<path d="M8.1969 10.7424H10.0758C10.3185 10.7424 10.5152 10.5457 10.5152 10.303C10.5152 10.0603 10.3185 9.86353 10.0758 9.86353H8.1969C7.9542 9.86353 7.75745 10.0603 7.75745 10.303C7.75745 10.5457 7.9542 10.7424 8.1969 10.7424Z" fill="#FFBB01"/>
<path d="M8.1969 13.0911H12.8939C13.1366 13.0911 13.3333 12.8943 13.3333 12.6516C13.3333 12.4089 13.1366 12.2122 12.8939 12.2122H8.1969C7.9542 12.2122 7.75745 12.4089 7.75745 12.6516C7.75745 12.8943 7.9542 13.0911 8.1969 13.0911Z" fill="#FFBB01"/>
<path d="M13.3333 15C13.3333 14.7573 13.1366 14.5605 12.8939 14.5605H8.1969C7.9542 14.5605 7.75745 14.7573 7.75745 15C7.75745 15.2427 7.9542 15.4395 8.1969 15.4395H12.8939C13.1366 15.4395 13.3333 15.2427 13.3333 15Z" fill="#FFBB01"/>
<path d="M11.9547 17.7878H19.4698C19.7125 17.7878 19.9092 17.5911 19.9092 17.3484C19.9092 17.1057 19.7125 16.9089 19.4698 16.9089H11.9547C11.712 16.9089 11.5153 17.1057 11.5153 17.3484C11.5153 17.5911 11.712 17.7878 11.9547 17.7878Z" fill="#FFBB01"/>
<path d="M8.1969 16.9089C7.9542 16.9089 7.75745 17.1057 7.75745 17.3484C7.75745 17.5911 7.9542 17.7878 8.1969 17.7878H10.0758C10.3185 17.7878 10.5152 17.5911 10.5152 17.3484C10.5152 17.1057 10.3185 16.9089 10.0758 16.9089H8.1969Z" fill="#FFBB01"/>
<path d="M29.803 10.8031H28.3939C28.1512 10.8031 27.9545 10.9999 27.9545 11.2426C27.9545 11.4852 28.1512 11.682 28.3939 11.682H29.803C30.0457 11.682 30.2424 11.4852 30.2424 11.2426C30.2424 10.9999 30.0457 10.8031 29.803 10.8031Z" fill="#FFBB01"/>
<path d="M32.1515 0H16.1818C15.1625 0 14.3333 0.829219 14.3333 1.84852V13.5909C14.3333 14.6102 15.1625 15.4394 16.1818 15.4394H26.3331L29.6298 18.7361C29.8042 18.9105 30.0356 19.0029 30.2718 19.0029C30.389 19.0029 30.5075 18.9801 30.6206 18.9332C30.9616 18.792 31.1819 18.4623 31.1819 18.0933V15.4395H32.1515C33.1708 15.4395 34 14.6102 34 13.5909V1.84852C34 0.829219 33.1708 0 32.1515 0ZM33.1211 13.5909C33.1211 14.1256 32.6862 14.5605 32.1515 14.5605H30.7424C30.4997 14.5605 30.303 14.7573 30.303 15V18.0933C30.303 18.1037 30.303 18.1135 30.2843 18.1212C30.2656 18.1289 30.2587 18.122 30.2513 18.1147L26.8259 14.6893C26.7435 14.6068 26.6317 14.5605 26.5152 14.5605H16.1818C15.6472 14.5605 15.2122 14.1256 15.2122 13.5909V1.84852C15.2122 1.31385 15.6472 0.878906 16.1818 0.878906H32.1514C32.6861 0.878906 33.121 1.31385 33.121 1.84852V13.5909H33.1211Z" fill="#FFBB01"/>
<path d="M23.2272 16.4393C22.9846 16.4393 22.7878 16.6361 22.7878 16.8788V19.697C22.7878 20.2316 22.3529 20.6666 21.8182 20.6666H11.4849C11.3683 20.6666 11.2565 20.7129 11.1742 20.7953L7.74877 24.2207C7.74145 24.2281 7.73441 24.235 7.71578 24.2273C7.69709 24.2196 7.69709 24.2097 7.69709 24.1994V21.1061C7.69709 20.8634 7.50033 20.6666 7.25764 20.6666H5.84852C5.31385 20.6666 4.87891 20.2317 4.87891 19.697V7.95459C4.87891 7.41993 5.31385 6.98499 5.84852 6.98499H12.8941C13.1368 6.98499 13.3335 6.78823 13.3335 6.54553C13.3335 6.30284 13.1368 6.10608 12.8941 6.10608H5.84852C4.82922 6.10608 4 6.9353 4 7.95459V19.697C4 20.7163 4.82922 21.5455 5.84852 21.5455H6.81813V24.1993C6.81813 24.5683 7.03844 24.898 7.3794 25.0392C7.49254 25.0861 7.61096 25.1089 7.72826 25.1089C7.9644 25.1089 8.19584 25.0165 8.37022 24.8422L11.6669 21.5455H21.8182C22.8375 21.5455 23.6668 20.7163 23.6668 19.697V16.8788C23.6667 16.6361 23.4699 16.4393 23.2272 16.4393Z" fill="#FFBB01"/>
</g>
<defs>
<filter id="filter0_dd" x="0" y="0" width="38" height="33.1089" filterUnits="userSpaceOnUse" color-interpolation-filters="sRGB">
<feFlood flood-opacity="0" result="BackgroundImageFix"/>
<feColorMatrix in="SourceAlpha" type="matrix" values="0 0 0 0 0 0 0 0 0 0 0 0 0 0 0 0 0 0 127 0"/>
<feOffset dy="4"/>
<feGaussianBlur stdDeviation="2"/>
<feColorMatrix type="matrix" values="0 0 0 0 0 0 0 0 0 0 0 0 0 0 0 0 0 0 0.25 0"/>
<feBlend mode="normal" in2="BackgroundImageFix" result="effect1_dropShadow"/>
<feColorMatrix in="SourceAlpha" type="matrix" values="0 0 0 0 0 0 0 0 0 0 0 0 0 0 0 0 0 0 127 0"/>
<feOffset dy="4"/>
<feGaussianBlur stdDeviation="2"/>
<feColorMatrix type="matrix" values="0 0 0 0 0 0 0 0 0 0 0 0 0 0 0 0 0 0 0.25 0"/>
<feBlend mode="normal" in2="effect1_dropShadow" result="effect2_dropShadow"/>
<feBlend mode="normal" in="SourceGraphic" in2="effect2_dropShadow" result="shape"/>
</filter>
</defs>
</svg>
