<svg width="38" height="40" viewBox="0 0 38 40" fill="none" xmlns="http://www.w3.org/2000/svg">
<g filter="url(#filter0_dd)">
<path d="M19.8687 20.2015C20.4223 20.1584 20.9269 19.8761 21.2545 19.4257L26.2335 12.5424C26.3861 12.3313 26.3632 12.0399 26.1782 11.8548C25.9931 11.6703 25.7017 11.6474 25.4906 11.7995L18.6062 16.7801C18.1574 17.1066 17.8751 17.6113 17.832 18.1648C17.7889 18.7184 17.9894 19.2603 18.3813 19.6522C18.7381 20.0096 19.2194 20.2074 19.7198 20.2074C19.7692 20.2074 19.8187 20.2052 19.8687 20.2015ZM18.8923 18.2478C18.911 18.0048 19.0354 17.783 19.2311 17.6405L23.4305 14.6025L20.3935 18.8008C20.25 18.9981 20.0282 19.122 19.7852 19.1412C19.5432 19.1571 19.3055 19.0731 19.1327 18.9003C18.9615 18.7285 18.8732 18.4903 18.8923 18.2478Z" fill="#FFBB01"/>
<path d="M31.7804 10.4036C31.7751 10.3925 31.7751 10.3808 31.7692 10.3696C31.7629 10.359 31.7528 10.3531 31.7458 10.343C31.2082 9.42091 30.5722 8.56315 29.8501 7.7857L30.9923 6.64398L31.7442 7.39591L34 5.13959L31.7442 2.88381L29.4879 5.13959L30.2404 5.89205L29.0981 7.03377C28.3207 6.31162 27.4635 5.67509 26.5408 5.13747C26.5307 5.13055 26.5249 5.12045 26.5143 5.11407C26.5031 5.10769 26.4914 5.10822 26.4802 5.10237C24.8354 4.15475 22.9875 3.52353 21.0173 3.29221V2.65887H21.815C22.5483 2.65887 23.1444 2.06275 23.1444 1.32943C23.1444 0.596119 22.5477 0 21.8144 0H17.0285C16.2952 0 15.699 0.596119 15.699 1.32943C15.699 2.06275 16.2952 2.65887 17.0285 2.65887H17.8261V3.2736C17.2518 3.33475 16.6786 3.42835 16.1117 3.5581C15.8256 3.62351 15.6464 3.90907 15.7123 4.19516C15.7777 4.48126 16.0633 4.661 16.3494 4.59453C16.8386 4.48232 17.3326 4.39777 17.8277 4.34087L18.3983 4.29673C18.5727 4.28344 18.7333 4.27387 18.8897 4.26642V5.31774C18.8897 5.61181 19.1274 5.84951 19.4215 5.84951C19.7155 5.84951 19.9532 5.61181 19.9532 5.31774V4.27014C21.9532 4.36214 23.8378 4.89923 25.5135 5.78304L24.9891 6.69078C24.8424 6.9455 24.9296 7.27041 25.1838 7.41718C25.2672 7.46557 25.3587 7.48844 25.4491 7.48844C25.6331 7.48844 25.8118 7.39325 25.9102 7.22255L26.4329 6.31694C28.0968 7.37251 29.5103 8.78597 30.5658 10.4499L29.6602 10.9726C29.4066 11.1194 29.3194 11.4443 29.4667 11.699C29.5656 11.8697 29.7437 11.9649 29.9277 11.9649C30.0181 11.9649 30.1096 11.942 30.1931 11.8937L31.1008 11.3693C31.9968 13.0689 32.5355 14.9843 32.6158 17.0162H31.5656C31.2715 17.0162 31.0338 17.2539 31.0338 17.548C31.0338 17.8421 31.2715 18.0798 31.5656 18.0798H32.6158C32.5355 20.1117 31.9968 22.0271 31.1008 23.7267L30.1931 23.2024C29.9389 23.0556 29.6134 23.1417 29.4667 23.397C29.3199 23.6517 29.4071 23.9766 29.6613 24.1234L30.5669 24.6461C29.5113 26.31 28.0979 27.7235 26.434 28.7791L25.9112 27.8735C25.7639 27.6182 25.4379 27.5315 25.1848 27.6788C24.9301 27.8256 24.8429 28.151 24.9902 28.4052L25.5145 29.313C23.8389 30.1968 21.9543 30.7339 19.9543 30.8259V29.7793C19.9543 29.4853 19.7166 29.2476 19.4225 29.2476C19.1284 29.2476 18.8907 29.4853 18.8907 29.7793V30.8301C18.0415 30.8009 17.1896 30.6945 16.351 30.502C16.0649 30.4334 15.7793 30.6153 15.7139 30.9014C15.648 31.1875 15.8272 31.473 16.1133 31.5384C17.1747 31.7831 18.259 31.9064 19.3348 31.9064C19.3608 31.9064 19.3858 31.9048 19.4119 31.9043C19.4156 31.9043 19.4183 31.9064 19.4215 31.9064C19.4257 31.9064 19.4294 31.9038 19.4337 31.9038C21.9899 31.8862 24.3882 31.196 26.4632 30.0037C26.4797 29.9963 26.4972 29.9926 26.5132 29.983C26.5238 29.9766 26.5297 29.9665 26.5398 29.9596C28.6876 28.7078 30.4823 26.9152 31.7368 24.769C31.7469 24.7546 31.7597 24.7434 31.7687 24.7275C31.7751 24.7163 31.7746 24.7046 31.7799 24.6935C32.9944 22.5876 33.6927 20.1489 33.6927 17.5485C33.6927 14.9482 32.9944 12.5094 31.7804 10.4036ZM31.7437 4.38767L32.4956 5.13959L31.7437 5.89205L30.9913 5.13959L31.7437 4.38767ZM18.8897 3.20181V1.59532H17.0285C16.8822 1.59532 16.7626 1.47567 16.7626 1.32943C16.7626 1.1832 16.8822 1.06355 17.0285 1.06355H21.8144C21.9607 1.06355 22.0803 1.1832 22.0803 1.32943C22.0803 1.47567 21.9607 1.59532 21.8144 1.59532H19.9532V3.20181C19.7682 3.19437 19.5916 3.19064 19.4215 3.19064C19.4066 3.19064 19.3895 3.19171 19.3747 3.19171C19.3614 3.19171 19.3481 3.19064 19.3348 3.19064C19.2476 3.19064 19.1604 3.19649 19.0731 3.19809C19.0115 3.19968 18.9535 3.19915 18.8897 3.20181Z" fill="#FFBB01"/>
<path d="M14.6356 7.44495H11.9767C11.6826 7.44495 11.4449 7.68265 11.4449 7.97672C11.4449 8.27079 11.6826 8.50849 11.9767 8.50849H14.6356C14.9297 8.50849 15.1674 8.27079 15.1674 7.97672C15.1674 7.68265 14.9297 7.44495 14.6356 7.44495Z" fill="#FFBB01"/>
<path d="M14.6355 11.1672H9.31772C9.02365 11.1672 8.78595 11.4049 8.78595 11.699C8.78595 11.9931 9.02365 12.2308 9.31772 12.2308H14.6355C14.9295 12.2308 15.1672 11.9931 15.1672 11.699C15.1672 11.4049 14.9295 11.1672 14.6355 11.1672Z" fill="#FFBB01"/>
<path d="M14.6355 14.8895H6.65885C6.36478 14.8895 6.12708 15.1272 6.12708 15.4213C6.12708 15.7154 6.36478 15.9531 6.65885 15.9531H14.6355C14.9295 15.9531 15.1672 15.7154 15.1672 15.4213C15.1672 15.1272 14.9295 14.8895 14.6355 14.8895Z" fill="#FFBB01"/>
<path d="M14.6355 18.6122H4.53177C4.2377 18.6122 4 18.8499 4 19.144C4 19.438 4.2377 19.6757 4.53177 19.6757H14.6355C14.9295 19.6757 15.1673 19.438 15.1673 19.144C15.1673 18.8499 14.9295 18.6122 14.6355 18.6122Z" fill="#FFBB01"/>
<path d="M14.6354 22.3345H7.72233C7.42825 22.3345 7.19055 22.5722 7.19055 22.8662C7.19055 23.1603 7.42825 23.398 7.72233 23.398H14.6354C14.9295 23.398 15.1672 23.1603 15.1672 22.8662C15.1672 22.5722 14.9295 22.3345 14.6354 22.3345Z" fill="#FFBB01"/>
<path d="M14.6355 26.0569H10.9131C10.619 26.0569 10.3813 26.2946 10.3813 26.5887C10.3813 26.8827 10.619 27.1204 10.9131 27.1204H14.6355C14.9295 27.1204 15.1673 26.8827 15.1673 26.5887C15.1673 26.2946 14.9295 26.0569 14.6355 26.0569Z" fill="#FFBB01"/>
</g>
<defs>
<filter id="filter0_dd" x="0" y="0" width="38" height="39.9064" filterUnits="userSpaceOnUse" color-interpolation-filters="sRGB">
<feFlood flood-opacity="0" result="BackgroundImageFix"/>
<feColorMatrix in="SourceAlpha" type="matrix" values="0 0 0 0 0 0 0 0 0 0 0 0 0 0 0 0 0 0 127 0"/>
<feOffset dy="4"/>
<feGaussianBlur stdDeviation="2"/>
<feColorMatrix type="matrix" values="0 0 0 0 0 0 0 0 0 0 0 0 0 0 0 0 0 0 0.25 0"/>
<feBlend mode="normal" in2="BackgroundImageFix" result="effect1_dropShadow"/>
<feColorMatrix in="SourceAlpha" type="matrix" values="0 0 0 0 0 0 0 0 0 0 0 0 0 0 0 0 0 0 127 0"/>
<feOffset dy="4"/>
<feGaussianBlur stdDeviation="2"/>
<feColorMatrix type="matrix" values="0 0 0 0 0 0 0 0 0 0 0 0 0 0 0 0 0 0 0.25 0"/>
<feBlend mode="normal" in2="effect1_dropShadow" result="effect2_dropShadow"/>
<feBlend mode="normal" in="SourceGraphic" in2="effect2_dropShadow" result="shape"/>
</filter>
</defs>
</svg>
